:SAMPLES-PER-SECOND 30
:FULLY-SPECIFIED
:DEGREES
695
root  -73.5604 40.0623 -4.48376 8.15802 57.5125 6.90326
RightUpLeg  -14.0119 8.19787 -7.33622
RightLeg  24.6483 -2.90367 -1.66686
RightFoot  -13.0878 -0.0898527 -0.114919
RightToes  -8.3237e-009 0 -3.6325e-017
Spine  6.24311 -2.70113 -6.39392
Spine1  3.52117 -4.19625 4.68957
HEad  -18.7397 17.2931 -7.86437
LeftShoulder1  -0.498884 4.78592 -32.7649
LeftArm  8.72882 -1.77956 -45.5923
LeftForeArm  27.7601 -13.2649 -9.14042
LeftHand  -0.0459792 7.8404 -0.139688
RightShoulder  -1.06704 -6.47981 29.3202
RightArm  29.8746 -22.0663 33.1547
RightForeArm  14.0031 15.0498 6.92348
RightHand  0.0568652 5.03532 0.318173
LeftUpLeg  -1.11789 5.60141 -1.6836
LeftLeg  11.7023 -2.05655 -0.664459
LeftFoot  -14.4754 0.0323332 -1.98449
LeftToes  -1.18267e-011 3.61711e-011 9.57411e-011
696
root  -73.4983 40.127 -4.1892 8.30865 60.5659 7.31287
RightUpLeg  -12.3617 5.61316 -6.73751
RightLeg  23.72 -3.46728 -1.89014
RightFoot  -12.2658 -0.086119 -0.344861
RightToes  -8.3237e-009 0 -3.6325e-017
Spine  5.64126 -2.49115 -4.48491
Spine1  4.00906 -3.69779 3.83607
HEad  -17.6533 16.3619 -8.05794
LeftShoulder1  -0.501964 4.79065 -32.892
LeftArm  7.05843 -1.14675 -44.2682
LeftForeArm  30.0106 -12.3569 -9.41015
LeftHand  -0.062145 8.83837 -0.493655
RightShoulder  -1.10218 -6.56854 29.4381
RightArm  25.5552 -20.4483 32.4829
RightForeArm  16.1241 12.4772 7.50451
RightHand  -0.00868606 4.60329 -0.390164
LeftUpLeg  -0.446741 5.40276 -1.02154
LeftLeg  10.9928 -4.90581 -0.86057
LeftFoot  -13.8804 0.0433989 -1.80738
LeftToes  -1.18267e-011 3.61711e-011 9.57411e-011
697
root  -73.3622 40.1773 -3.92449 7.45654 62.2954 7.46982
RightUpLeg  -9.85825 1.4448 -6.55059
RightLeg  22.4056 -1.05372 -0.696591
RightFoot  -12.389 -0.0865865 -0.311784
RightToes  -8.3237e-009 0 -3.6325e-017
Spine  5.6142 -1.6789 -2.18349
Spine1  4.66695 -2.57509 2.93281
HEad  -17.2736 14.769 -8.18622
LeftShoulder1  -0.444465 4.62716 -33.4513
LeftArm  3.64705 -0.218476 -42.9366
LeftForeArm  32.1379 -11.2725 -9.37821
LeftHand  -0.0604395 7.79974 -0.814696
RightShoulder  -1.05286 -6.46879 28.9738
RightArm  22.508 -18.7707 32.151
RightForeArm  18.3275 10.7462 7.56867
RightHand  0.0239151 4.62217 -0.0540676
LeftUpLeg  1.16299 4.44748 -0.806549
LeftLeg  10.3548 -5.73763 -0.278812
LeftFoot  -13.5658 0.0423331 -2.00729
LeftToes  -1.18267e-011 3.61711e-011 9.57411e-011
698
root  -73.2784 40.2074 -3.66368 5.71802 64.1027 6.1644
RightUpLeg  -7.70952 -1.64726 -5.73691
RightLeg  20.8025 0.522815 0.00981489
RightFoot  -12.5265 -0.0840702 0.0781809
RightToes  -8.3237e-009 0 -3.6325e-017
Spine  5.22806 -1.53293 1.29548
Spine1  5.76495 -1.8662 1.169
HEad  -17.082 13.7129 -8.69558
LeftShoulder1  -0.59474 5.03005 -32.7798
LeftArm  2.11746 1.50757 -42.6745
LeftForeArm  31.1122 -11.7189 -8.79698
LeftHand  -0.0349999 8.26948 0.447414
RightShoulder  -0.981931 -6.28351 28.7717
RightArm  20.956 -15.7272 32.6248
RightForeArm  19.3987 8.99846 7.91128
RightHand  -0.070377 3.32598 -1.16581
LeftUpLeg  1.48239 2.46913 -0.047352
LeftLeg  11.2353 -5.33995 0.240319
LeftFoot  -13.6973 0.0384923 -2.10926
LeftToes  -1.18267e-011 3.61711e-011 9.57411e-011
699
root  -73.217 40.1709 -3.38139 3.48828 65.6082 4.04095
RightUpLeg  -6.35655 -3.0155 -4.3379
RightLeg  19.9823 0.427822 -0.0723814
RightFoot  -12.8998 -0.0908435 -0.276927
RightToes  -8.3237e-009 0 -3.6325e-017
Spine  5.95881 -0.875056 3.30861
Spine1  4.93747 -1.11727 1.92136
HEad  -15.8056 12.7364 -10.7065
LeftShoulder1  -0.696532 5.27355 -33.2011
LeftArm  3.02085 3.85046 -41.6315
LeftForeArm  28.0526 -13.3258 -8.09723
LeftHand  0.00283977 8.04156 1.89477
RightShoulder  -0.945406 -6.18818 28.6554
RightArm  20.7008 -12.9334 31.736
RightForeArm  18.9144 8.31372 8.1006
RightHand  -0.00146043 4.4744 -0.293744
LeftUpLeg  0.728828 -1.08855 1.03881
LeftLeg  13.6583 -2.48592 0.426517
LeftFoot  -14.1425 0.0371168 -1.97845
LeftToes  -1.18267e-011 3.61711e-011 9.57411e-011
700
root  -73.1878 40.0289 -3.13267 2.07886 68.3753 2.32178
RightUpLeg  -6.03224 -4.90153 -3.1761
RightLeg  20.4054 -0.392593 -0.475828
RightFoot  -13.9551 -0.103154 -0.366034
RightToes  -8.3237e-009 0 -3.6325e-017
Spine  5.73218 -0.940797 5.11948
Spine1  4.91034 -1.04483 2.11082
HEad  -15.9129 11.832 -9.77752
LeftShoulder1  -0.566496 4.96079 -32.7198
LeftArm  4.26065 6.09787 -41.1927
LeftForeArm  25.6655 -14.9026 -7.38206
LeftHand  0.00351443 8.18834 1.88362
RightShoulder  -0.957117 -6.21313 28.7635
RightArm  18.6315 -9.78557 31.7098
RightForeArm  17.2249 7.52062 7.76102
RightHand  -0.0105545 4.66048 -0.630868
LeftUpLeg  -1.97585 -5.08097 2.08047
LeftLeg  18.2572 0.134119 0.281731
LeftFoot  -14.424 0.0506169 -1.3189
LeftToes  -1.18267e-011 3.61711e-011 9.57411e-011
701
root  -73.155 39.9234 -2.88204 0.540222 71.2414 0.817719
RightUpLeg  -5.18349 -7.9677 -2.52207
RightLeg  20.4031 -0.210369 -0.302122
RightFoot  -14.8226 -0.124489 -0.801581
RightToes  -8.3237e-009 0 -3.6325e-017
Spine  5.68363 -1.18498 6.29472
Spine1  5.22016 -1.1979 2.16192
HEad  -16.3843 9.99928 -9.2889
LeftShoulder1  -0.458056 4.7041 -32.0362
LeftArm  5.89937 7.96458 -40.9757
LeftForeArm  23.2578 -16.3716 -6.73008
LeftHand  0.0192508 8.01345 2.59122
RightShoulder  -1.03619 -6.39999 29.2341
RightArm  14.8263 -5.5193 32.7276
RightForeArm  14.8524 5.66242 6.89866
RightHand  -0.159109 1.38715 -2.7978
LeftUpLeg  -4.99629 -4.91854 3.07797
LeftLeg  23.7581 0.457482 0.557836
LeftFoot  -13.6469 0.0224466 -3.07373
LeftToes  -1.18267e-011 3.61711e-011 9.57411e-011
702
root  -73.1002 39.867 -2.66483 0.677979 73.6411 0.851593
RightUpLeg  -4.8185 -9.9869 -2.45994
RightLeg  20.6477 -0.581806 -0.25459
RightFoot  -15.4574 -0.139952 -0.98714
RightToes  -8.3237e-009 0 -3.6325e-017
Spine  5.42389 -1.11836 6.89635
Spine1  5.50479 -1.08248 2.32579
HEad  -16.1917 8.40333 -8.10548
LeftShoulder1  -0.404052 4.55836 -32.1625
LeftArm  8.15069 8.95451 -40.2839
LeftForeArm  21.9083 -17.2514 -6.45628
LeftHand  0.00403746 7.56299 2.28534
RightShoulder  -1.08242 -6.49428 29.6653
RightArm  10.7736 -1.56434 33.5147
RightForeArm  12.5432 4.53851 5.63133
RightHand  -0.114585 3.1939 -1.76561
LeftUpLeg  -8.20713 -3.5793 3.21726
LeftLeg  28.7974 1.56742 1.27152
LeftFoot  -11.7687 0.05347 -3.99613
LeftToes  -1.18267e-011 3.61711e-011 9.57411e-011
703
root  -73.0207 39.8613 -2.45717 1.45966 74.9803 1.68622
RightUpLeg  -4.33978 -10.713 -2.55595
RightLeg  20.6408 -1.04405 -0.306578
RightFoot  -15.7618 -0.144398 -0.980961
RightToes  -8.3237e-009 0 -3.6325e-017
Spine  5.49346 -0.683603 7.238
Spine1  5.67117 -0.588964 2.27659
HEad  -15.7389 7.29803 -7.30906
LeftShoulder1  -0.496803 4.7889 -32.5282
LeftArm  8.56991 9.68578 -40.0672
LeftForeArm  21.7682 -17.5964 -6.27157
LeftHand  -0.00230562 8.02901 1.66003
RightShoulder  -1.05436 -6.4247 29.5574
RightArm  7.25991 2.6857 34.9969
RightForeArm  11.2017 3.60081 4.55997
RightHand  -0.119099 3.47457 -1.82678
LeftUpLeg  -11.0887 -1.35367 2.87874
LeftLeg  33.0354 2.24953 1.91497
LeftFoot  -11.0024 0.0769742 -3.6661
LeftToes  -1.18267e-011 3.61711e-011 9.57411e-011
704
root  -72.9024 39.8945 -2.24227 2.77454 76.1911 2.8848
RightUpLeg  -3.78673 -11.1089 -2.64539
RightLeg  20.1448 -1.83303 -0.404173
RightFoot  -15.8823 -0.139901 -0.818165
RightToes  -8.3237e-009 0 -3.6325e-017
Spine  5.49671 -0.182224 7.83446
Spine1  5.49043 0.122537 1.44224
HEad  -15.6637 5.21318 -7.11461
LeftShoulder1  -0.477202 4.74866 -32.1351
LeftArm  8.46368 11.1627 -40.3579
LeftForeArm  21.8204 -17.9616 -6.01255
LeftHand  -0.024241 6.83416 0.960462
RightShoulder  -1.15251 -6.6455 30.1613
RightArm  5.95479 7.0068 35.961
RightForeArm  10.066 3.65126 4.32299
RightHand  -0.135812 5.39512 -1.76413
LeftUpLeg  -13.7769 0.39421 2.38073
LeftLeg  35.4183 2.2562 2.07681
LeftFoot  -11.229 0.071184 -3.83069
LeftToes  -1.18267e-011 3.61711e-011 9.57411e-011
705
root  -72.714 39.9465 -2.05628 5.271 77.8906 5.55252
RightUpLeg  -2.60132 -11.748 -3.19166
RightLeg  19.3123 -2.90196 -0.390025
RightFoot  -15.9506 -0.149664 -1.03848
RightToes  -8.3237e-009 0 -3.6325e-017
Spine  5.89752 0.0443626 8.36076
Spine1  4.91735 0.660363 0.20289
HEad  -15.1777 3.40008 -6.855
LeftShoulder1  -0.367414 4.48399 -31.3527
LeftArm  8.48336 12.9748 -40.8
LeftForeArm  21.4654 -18.4738 -5.70058
LeftHand  -0.0277627 6.27325 0.757603
RightShoulder  -1.19289 -6.72298 30.5268
RightArm  6.65792 10.1702 36.9209
RightForeArm  9.16938 5.73128 4.84407
RightHand  -0.202079 5.97803 -2.39779
LeftUpLeg  -15.6166 1.02899 1.37583
LeftLeg  35.3111 2.02848 1.90028
LeftFoot  -11.1132 0.0752169 -4.37843
LeftToes  -1.18267e-011 3.61711e-011 9.57411e-011
